Coordinates
version=1
nRows=13
nColumns=36
inDegrees=yes

Units are S.I. units (second, meters, Newtons, ...)
If the header above contains a line with 'inDegrees', this indicates whether rotational values are in degrees (yes) or radians (no).

endheader
time	pelvis_tilt	pelvis_list	pelvis_rotation	pelvis_tx	pelvis_ty	pelvis_tz	hip_flexion_r	hip_adduction_r	hip_rotation_r	knee_angle_r	knee_angle_r_beta	ankle_angle_r	subtalar_angle_r	mtp_angle_r	hip_flexion_l	hip_adduction_l	hip_rotation_l	knee_angle_l	knee_angle_l_beta	ankle_angle_l	subtalar_angle_l	mtp_angle_l	lumbar_extension	lumbar_bending	lumbar_rotation	arm_flex_r	arm_add_r	arm_rot_r	elbow_flex_r	pro_sup_r	arm_flex_l	arm_add_l	arm_rot_l	elbow_flex_l	pro_sup_l
     44.66666670	     -3.75239196	     -1.97012205	     -2.07578029	      0.88913233	      0.81697426	      0.72361138	     -1.69049658	      5.55644851	      0.38832525	      8.33170138	      0.14541562	     12.66346392	     -2.14051136	     -7.49999987	     31.25250423	     -3.60147273	     -4.75671536	     25.66251056	      0.44789530	      7.28065556	     -5.81716930	     -7.49999987	     -0.77681850	      2.87067735	      8.60759304	     11.57774907	    -18.67819272	      6.59219687	     24.37430412	     87.32519569	      2.23219420	     -9.70567918	      9.58424423	     10.34179603	     93.75764978
     44.68333330	     -4.19705218	     -2.17302465	     -2.19102953	      0.88729028	      0.81358609	      0.72189136	     -2.76279363	      5.65820240	     -0.15435121	      8.27240576	      0.14438072	     13.28384443	     -0.36374952	     -7.49999987	     31.78230177	     -3.55066623	     -4.17236850	     19.27268676	      0.33637184	      7.75977235	     -2.98790686	     -7.49999987	     -0.69773382	      3.27276094	      9.18312252	     12.80165028	    -19.47411260	      6.73889282	     25.73244792	     86.43162910	      1.94623858	     -9.28128401	      9.12471509	      9.65383697	     92.89707815
     44.70000000	     -4.89789513	     -2.34202816	     -2.25125587	      0.88581334	      0.80931147	      0.72029928	     -3.65531225	      5.72295363	     -0.52640959	      7.87269801	      0.13740450	     13.97053843	      1.26100381	     -7.49999987	     32.41769120	     -3.50025955	     -3.31584948	     13.13441256	      0.22923874	      8.30048206	      0.10477886	     -7.49999987	     -0.20223002	      3.60326441	      9.45465488	     13.85143326	    -20.14924314	      7.31373130	     26.92868561	     86.44103349	      1.42177900	     -8.97414725	      8.20766200	      9.41451400	     92.88187336
     44.71666670	     -5.30950767	     -2.49317715	     -2.22806528	      0.88480461	      0.80490565	      0.71906684	     -4.89888769	      5.75488242	     -0.69270405	      7.12403593	      0.12433788	     15.03883989	      2.77903329	     -7.49999987	     32.74356339	     -3.46561264	     -1.84477765	      7.99532022	      0.13954466	      8.72345538	      2.16322507	     -7.49999987	      0.00610867	      3.89305888	      9.47469282	     14.91709156	    -20.60961421	      7.18704277	     27.69275264	     85.83767783	      0.98944919	     -8.70634072	      7.51283737	      9.20825696	     92.34676656
     44.73333330	     -5.76750334	     -2.53770756	     -2.23288088	      0.88514606	      0.79968408	      0.71845271	     -6.01410153	      5.71272273	     -0.29343838	      6.32419965	      0.11037811	     16.31233280	      3.53717972	     -7.49999987	     33.24363811	     -3.47797121	     -0.47171561	      4.59622843	      0.08021932	      9.04009029	      3.42440918	     -7.49999987	      0.48120233	      3.92338373	      9.61638894	     15.50463963	    -20.92945206	      7.09240380	     28.15429074	     85.95490452	      0.61028735	     -8.56627488	      7.29913778	      9.10405466	     92.37242009
     44.75000000	     -5.54539242	     -2.34364937	     -2.20185460	      0.88643309	      0.79444126	      0.71735768	     -7.69381751	      5.35737428	     -0.14769700	      5.79342837	      0.10111440	     18.11460793	      4.87691956	     -7.49999987	     33.14104927	     -3.25926813	      0.51856525	      3.09241018	      0.05397274	      9.44317412	      3.97647300	     -7.49999987	      0.16578192	      3.67770650	      9.68789142	     16.19526788	    -21.10441190	      6.76190885	     28.61490352	     86.30439191	      0.57499232	     -8.42532088	      6.53512363	      8.67793724	     92.43151875
     44.76666670	     -5.71070481	     -1.97467997	     -2.21416700	      0.88768696	      0.78920800	      0.71559935	     -8.82434167	      4.83587095	      0.55198869	      5.61466461	      0.09799438	     19.51637134	      4.93972940	     -7.49999987	     33.52999406	     -2.82640269	      1.02844595	      3.18502923	      0.05558925	      9.57035600	      4.04410698	     -7.49999987	      0.51831676	      3.25803363	      9.83709264	     16.53597701	    -21.21654861	      6.61941343	     28.81128509	     86.32604003	      0.30167737	     -8.47408444	      6.35158877	      8.57434008	     92.37802577
     44.78333330	     -5.47219048	     -1.32262907	     -2.23500071	      0.88786157	      0.78602863	      0.71379350	    -10.19010810	      3.94806169	      0.88084157	      5.96775180	      0.10415692	     20.80930514	      5.13728605	     -7.49999987	     33.41348784	     -2.01600088	      1.22987807	      4.19769984	      0.07326368	      9.09837722	      3.22112903	     -7.49999987	      0.33594658	      2.43235387	     10.02677688	     16.80905290	    -20.93806297	      4.25333671	     29.30610029	     87.78789886	      0.40871601	     -8.30308978	      2.11278297	      7.80342387	     92.34101267
     44.80000000	     -5.53428633	     -0.66799661	     -2.23019684	      0.88884596	      0.78409679	      0.71198519	    -11.04769820	      3.05743517	      1.18556563	      6.79956204	      0.11867475	     21.55059955	      4.66470055	     -7.49999987	     33.66293646	     -1.13277803	      0.82638452	      6.07363860	      0.10600499	      8.48394465	      2.72584806	     -7.49999987	      0.64530406	      1.64737803	     10.11310171	     17.04398409	    -20.92991809	      4.19121907	     29.61105821	     87.67054315	     -0.04760456	     -8.58878592	      2.02601282	      8.16730540	     92.14534865
     44.81666670	     -5.31733487	      0.07765235	     -2.29836406	      0.89257590	      0.78384427	      0.70932746	    -11.95507480	      2.00182184	      1.52358179	      8.13325281	      0.14195204	     21.50458501	      3.28867288	     -7.49999987	     33.48385353	     -0.10504572	      0.64910469	      8.35455045	      0.14581441	      7.19687792	      1.14357001	     -7.49999987	      0.75319524	      0.77849724	     10.22563336	     17.22636601	    -20.79513273	      3.75751258	     29.31537432	     88.13401708	      0.26879592	     -8.69200599	      1.37707417	      6.89236785	     92.41286847
     44.83333330	     -5.15515848	      0.85477251	     -2.30559115	      0.89835962	      0.78455960	      0.70533835	    -12.65856295	      0.83653168	      1.25392233	      9.77267263	      0.17056531	     20.99038814	      2.58971712	     -7.49999987	     33.24850359	      0.95910806	      0.09332208	     10.87844270	      0.18986464	      6.01350045	      0.46949633	     -7.49999987	      0.98996620	     -0.14719193	     10.15040307	     16.94645511	    -20.62380565	      3.70595252	     29.21544145	     88.22031730	      0.18711032	     -8.99056817	      1.24370545	      6.72517109	     92.45026487
     44.85000000	     -5.21831342	      1.55024948	     -2.27301513	      0.90310897	      0.78506481	      0.70070516	    -12.74165402	     -0.23393963	      1.58347797	     12.10155940	      0.21121206	     19.48291447	      0.49471817	     -7.49999987	     33.09694153	      2.02332450	      0.41754405	     13.26045285	      0.23143856	      4.38730913	     -1.58021200	     -7.49999987	      1.60695714	     -0.90804980	      9.92292210	     16.29577238	    -20.33873375	      3.28825547	     28.78018516	     88.57268471	      0.18301681	     -9.15372673	      0.73948018	      6.29009094	     92.59965394
     44.86666670	     -5.24730931	      2.19117744	     -1.98524474	      0.90623339	      0.78604604	      0.69644333	    -12.23509986	     -1.28939463	      1.26391837	     15.56803496	      0.27171347	     16.91801854	     -1.29871879	     -7.49999987	     32.74571227	      3.12752402	      0.77103145	     15.44390043	      0.26954691	      3.31440298	     -2.82789910	     -7.49999987	      2.19686207	     -1.64192857	      9.37624958	     15.39687415	    -19.99177700	      2.91887032	     28.34902768	     88.95035487	      0.20531547	     -9.32163271	      0.37892119	      6.12044804	     92.75392176
